Facade-Bold.ufo
<glyph name="numbersign" format="2">
  <advance width="750"/>
  <unicode hex="0023"/>
  <outline>
    <contour>
      <point x="76" y="0" type="line"/>
      <point x="220" y="0" type="line"/>
      <point x="255" y="210" type="line"/>
      <point x="413" y="210" type="line"/>
      <point x="378" y="0" type="line"/>
      <point x="522" y="0" type="line"/>
      <point x="557" y="210" type="line"/>
      <point x="661" y="210" type="line"/>
      <point x="683" y="342" type="line"/>
      <point x="579" y="342" type="line"/>
      <point x="615" y="558" type="line"/>
      <point x="715" y="558" type="line"/>
      <point x="737" y="690" type="line"/>
      <point x="637" y="690" type="line"/>
      <point x="672" y="900" type="line"/>
      <point x="528" y="900" type="line"/>
      <point x="493" y="690" type="line"/>
      <point x="335" y="690" type="line"/>
      <point x="370" y="900" type="line"/>
      <point x="226" y="900" type="line"/>
      <point x="191" y="690" type="line"/>
      <point x="89" y="690" type="line"/>
      <point x="67" y="558" type="line"/>
      <point x="169" y="558" type="line"/>
      <point x="133" y="342" type="line"/>
      <point x="35" y="342" type="line"/>
      <point x="13" y="210" type="line"/>
      <point x="111" y="210" type="line"/>
    </contour>
    <contour>
      <point x="268" y="334" type="line"/>
      <point x="306" y="566" type="line"/>
      <point x="480" y="566" type="line"/>
      <point x="442" y="334" type="line"/>
    </contour>
  </outline>
</glyph>
<glyph name="slash" format="2">
  <advance width="520"/>
  <unicode hex="002F"/>
  <outline>
    <contour>
      <point x="-80" y="-180" type="line"/>
      <point x="73" y="-180" type="line"/>
      <point x="600" y="960" type="line"/>
      <point x="447" y="960" type="line"/>
    </contour>
  </outline>
</glyph>
<glyph name="two" format="2">
  <advance width="750"/>
  <unicode hex="0032"/>
  <outline>
    <contour>
      <point x="86" y="0" type="line"/>
      <point x="676" y="0" type="line"/>
      <point x="676" y="162" type="line"/>
      <point x="264" y="162" type="line"/>
      <point x="345" y="100" type="line"/>
      <point x="592" y="448" type="line" smooth="yes"/>
      <point x="642" y="519"/>
      <point x="665" y="572"/>
      <point x="665" y="636" type="curve" smooth="yes"/>
      <point x="665" y="793"/>
      <point x="529" y="920"/>
      <point x="367" y="920" type="curve" smooth="yes"/>
      <point x="201" y="920"/>
      <point x="74" y="788"/>
      <point x="74" y="637" type="curve" smooth="yes"/>
      <point x="74" y="595"/>
      <point x="84" y="556"/>
      <point x="105" y="518" type="curve"/>
      <point x="301" y="518" type="line"/>
      <point x="262" y="551"/>
      <point x="242" y="592"/>
      <point x="242" y="636" type="curve" smooth="yes"/>
      <point x="242" y="704"/>
      <point x="295" y="758"/>
      <point x="366" y="758" type="curve" smooth="yes"/>
      <point x="437" y="758"/>
      <point x="491" y="704"/>
      <point x="491" y="636" type="curve" smooth="yes"/>
      <point x="491" y="610"/>
      <point x="483" y="583"/>
      <point x="452" y="537" type="curve" smooth="yes"/>
    </contour>
  </outline>
</glyph>
<glyph name="N" format="2">
  <advance width="900"/>
  <unicode hex="004E"/>
  <anchor x="465" y="0" name="bottom"/>
  <anchor x="465" y="900" name="top"/>
  <outline>
    <contour>
      <point x="804" y="-30" type="line"/>
      <point x="804" y="900" type="line"/>
      <point x="636" y="900" type="line"/>
      <point x="636" y="392" type="line"/>
      <point x="96" y="930" type="line"/>
      <point x="96" y="0" type="line"/>
      <point x="264" y="0" type="line"/>
      <point x="264" y="509" type="line"/>
    </contour>
  </outline>
</glyph>
<glyph name="V" format="2">
  <advance width="770"/>
  <unicode hex="0056"/>
  <outline>
    <contour>
      <point x="384" y="-30" type="line"/>
      <point x="386" y="-30" type="line"/>
      <point x="764" y="900" type="line"/>
      <point x="583" y="900" type="line"/>
      <point x="436" y="530" type="line" smooth="yes"/>
      <point x="410" y="465"/>
      <point x="391" y="421"/>
      <point x="374" y="337" type="curve"/>
      <point x="408" y="337" type="line"/>
      <point x="389" y="422"/>
      <point x="366" y="471"/>
      <point x="343" y="530" type="curve" smooth="yes"/>
      <point x="196" y="900" type="line"/>
      <point x="6" y="900" type="line"/>
    </contour>
  </outline>
</glyph>
<glyph name="X" format="2">
  <advance width="870"/>
  <unicode hex="0058"/>
  <outline>
    <contour>
      <point x="6" y="0" type="line"/>
      <point x="209" y="0" type="line"/>
      <point x="368" y="270" type="line" smooth="yes"/>
      <point x="397" y="319"/>
      <point x="423" y="371"/>
      <point x="461" y="443" type="curve"/>
      <point x="409" y="443" type="line"/>
      <point x="447" y="371"/>
      <point x="473" y="319"/>
      <point x="502" y="270" type="curve" smooth="yes"/>
      <point x="661" y="0" type="line"/>
      <point x="870" y="0" type="line"/>
      <point x="562" y="522" type="line"/>
      <point x="792" y="900" type="line"/>
      <point x="596" y="900" type="line"/>
      <point x="516" y="774" type="line" smooth="yes"/>
      <point x="485" y="725"/>
      <point x="456" y="673"/>
      <point x="418" y="584" type="curve"/>
      <point x="462" y="584" type="line"/>
      <point x="423" y="673"/>
      <point x="393" y="724"/>
      <point x="363" y="773" type="curve" smooth="yes"/>
      <point x="284" y="900" type="line"/>
      <point x="78" y="900" type="line"/>
      <point x="311" y="517" type="line"/>
    </contour>
  </outline>
</glyph>
<glyph name="Y" format="2">
  <advance width="710"/>
  <unicode hex="0059"/>
  <anchor x="356" y="0" name="bottom"/>
  <anchor x="356" y="900" name="top"/>
  <anchor x="33" y="900" name="topleft"/>
  <outline>
    <contour>
      <point x="265" y="0" type="line"/>
      <point x="445" y="0" type="line"/>
      <point x="445" y="426" type="line"/>
      <point x="704" y="900" type="line"/>
      <point x="514" y="901" type="line"/>
      <point x="407" y="698" type="line" smooth="yes"/>
      <point x="386" y="659"/>
      <point x="367" y="624"/>
      <point x="345" y="557" type="curve"/>
      <point x="374" y="557" type="line"/>
      <point x="355" y="623"/>
      <point x="334" y="660"/>
      <point x="314" y="698" type="curve" smooth="yes"/>
      <point x="208" y="900" type="line"/>
      <point x="6" y="900" type="line"/>
      <point x="265" y="426" type="line"/>
    </contour>
  </outline>
</glyph>
<glyph name="h" format="2">
  <advance width="700"/>
  <unicode hex="0068"/>
  <anchor x="360" y="0" name="bottom"/>
  <anchor x="150" y="780" name="center"/>
  <anchor x="150" y="960" name="top"/>
  <outline>
    <contour>
      <point x="240" y="338" type="line"/>
      <point x="240" y="425"/>
      <point x="296" y="464"/>
      <point x="356" y="464" type="curve" smooth="yes"/>
      <point x="430" y="464"/>
      <point x="472" y="403"/>
      <point x="472" y="336" type="curve" smooth="yes"/>
      <point x="472" y="0" type="line"/>
      <point x="646" y="0" type="line"/>
      <point x="646" y="359" type="line" smooth="yes"/>
      <point x="646" y="525"/>
      <point x="529" y="620"/>
      <point x="402" y="620" type="curve" smooth="yes"/>
      <point x="274" y="620"/>
      <point x="168" y="526"/>
      <point x="168" y="355" type="curve"/>
    </contour>
    <contour>
      <point x="66" y="0" type="line"/>
      <point x="240" y="0" type="line"/>
      <point x="240" y="410" type="line"/>
      <point x="240" y="440" type="line"/>
      <point x="240" y="960" type="line"/>
      <point x="66" y="960" type="line"/>
    </contour>
  </outline>
</glyph>
<glyph name="m" format="2">
  <advance width="1080"/>
  <unicode hex="006D"/>
  <anchor x="566" y="0" name="bottom"/>
  <anchor x="566" y="600" name="top"/>
  <outline>
    <contour>
      <point x="240" y="344" type="line"/>
      <point x="240" y="423"/>
      <point x="293" y="464"/>
      <point x="350" y="464" type="curve" smooth="yes"/>
      <point x="420" y="464"/>
      <point x="459" y="406"/>
      <point x="459" y="342" type="curve" smooth="yes"/>
      <point x="459" y="0" type="line"/>
      <point x="633" y="0" type="line"/>
      <point x="633" y="367" type="line" smooth="yes"/>
      <point x="633" y="528"/>
      <point x="523" y="620"/>
      <point x="401" y="620" type="curve" smooth="yes"/>
      <point x="278" y="620"/>
      <point x="170" y="529"/>
      <point x="170" y="363" type="curve"/>
    </contour>
    <contour>
      <point x="66" y="0" type="line"/>
      <point x="240" y="0" type="line"/>
      <point x="240" y="410" type="line"/>
      <point x="222" y="440" type="line"/>
      <point x="222" y="600" type="line"/>
      <point x="66" y="600" type="line"/>
    </contour>
    <contour>
      <point x="633" y="344" type="line"/>
      <point x="633" y="423"/>
      <point x="686" y="464"/>
      <point x="743" y="464" type="curve" smooth="yes"/>
      <point x="813" y="464"/>
      <point x="852" y="406"/>
      <point x="852" y="342" type="curve" smooth="yes"/>
      <point x="852" y="0" type="line"/>
      <point x="1026" y="0" type="line"/>
      <point x="1026" y="367" type="line" smooth="yes"/>
      <point x="1026" y="528"/>
      <point x="908" y="620"/>
      <point x="780" y="620" type="curve" smooth="yes"/>
      <point x="639" y="620"/>
      <point x="524" y="529"/>
      <point x="524" y="363" type="curve"/>
    </contour>
  </outline>
</glyph>
<glyph name="s" format="2">
  <advance width="530"/>
  <unicode hex="0073"/>
  <anchor x="265" y="0" name="bottom"/>
  <anchor x="268" y="600" name="top"/>
  <outline>
    <contour>
      <point x="263" y="-20" type="curve" smooth="yes"/>
      <point x="401" y="-20"/>
      <point x="496" y="61"/>
      <point x="496" y="177" type="curve" smooth="yes"/>
      <point x="496" y="300"/>
      <point x="399" y="337"/>
      <point x="331" y="362" type="curve" smooth="yes"/>
      <point x="253" y="391" type="line" smooth="yes"/>
      <point x="219" y="404"/>
      <point x="207" y="421"/>
      <point x="207" y="439" type="curve" smooth="yes"/>
      <point x="207" y="462"/>
      <point x="226" y="482"/>
      <point x="269" y="482" type="curve" smooth="yes"/>
      <point x="325" y="482"/>
      <point x="392" y="449"/>
      <point x="438" y="391" type="curve"/>
      <point x="478" y="549" type="line"/>
      <point x="443" y="585"/>
      <point x="361" y="620"/>
      <point x="274" y="620" type="curve" smooth="yes"/>
      <point x="133" y="620"/>
      <point x="53" y="528"/>
      <point x="53" y="425" type="curve" smooth="yes"/>
      <point x="53" y="310"/>
      <point x="149" y="271"/>
      <point x="206" y="249" type="curve" smooth="yes"/>
      <point x="290" y="217" type="line" smooth="yes"/>
      <point x="314" y="208"/>
      <point x="342" y="197"/>
      <point x="342" y="166" type="curve" smooth="yes"/>
      <point x="342" y="139"/>
      <point x="321" y="118"/>
      <point x="272" y="118" type="curve" smooth="yes"/>
      <point x="199" y="118"/>
      <point x="123" y="165"/>
      <point x="85" y="218" type="curve"/>
      <point x="42" y="54" type="line"/>
      <point x="89" y="9"/>
      <point x="181" y="-20"/>
    </contour>
  </outline>
</glyph>
<glyph name="currency" format="2">
  <advance width="750"/>
  <unicode hex="00A4"/>
  <outline>
    <contour>
      <point x="125" y="104" type="line"/>
      <point x="202" y="181" type="line"/>
      <point x="252" y="150"/>
      <point x="311" y="132"/>
      <point x="375" y="132" type="curve" smooth="yes"/>
      <point x="438" y="132"/>
      <point x="497" y="150"/>
      <point x="546" y="181" type="curve"/>
      <point x="623" y="104" type="line"/>
      <point x="722" y="203" type="line"/>
      <point x="646" y="279" type="line"/>
      <point x="678" y="328"/>
      <point x="697" y="387"/>
      <point x="697" y="450" type="curve" smooth="yes"/>
      <point x="697" y="514"/>
      <point x="678" y="574"/>
      <point x="645" y="624" type="curve"/>
      <point x="721" y="700" type="line"/>
      <point x="625" y="796" type="line"/>
      <point x="548" y="719" type="line"/>
      <point x="498" y="750"/>
      <point x="439" y="768"/>
      <point x="375" y="768" type="curve" smooth="yes"/>
      <point x="313" y="768"/>
      <point x="254" y="750"/>
      <point x="205" y="720" type="curve"/>
      <point x="128" y="797" type="line"/>
      <point x="29" y="698" type="line"/>
      <point x="104" y="623" type="line"/>
      <point x="72" y="573"/>
      <point x="53" y="514"/>
      <point x="53" y="450" type="curve" smooth="yes"/>
      <point x="53" y="386"/>
      <point x="72" y="326"/>
      <point x="105" y="276" type="curve"/>
      <point x="29" y="200" type="line"/>
    </contour>
    <contour>
      <point x="375" y="288" type="curve" smooth="yes"/>
      <point x="286" y="288"/>
      <point x="215" y="361"/>
      <point x="215" y="450" type="curve" smooth="yes"/>
      <point x="215" y="539"/>
      <point x="286" y="612"/>
      <point x="375" y="612" type="curve" smooth="yes"/>
      <point x="464" y="612"/>
      <point x="535" y="539"/>
      <point x="535" y="450" type="curve" smooth="yes"/>
      <point x="535" y="361"/>
      <point x="464" y="288"/>
    </contour>
  </outline>
</glyph>
<glyph name="plusminus" format="2">
  <advance width="750"/>
  <unicode hex="00B1"/>
  <outline>
    <contour>
      <point x="72" y="443" type="line"/>
      <point x="678" y="443" type="line"/>
      <point x="678" y="577" type="line"/>
      <point x="72" y="577" type="line"/>
    </contour>
    <contour>
      <point x="72" y="50" type="line"/>
      <point x="678" y="50" type="line"/>
      <point x="678" y="166" type="line"/>
      <point x="72" y="166" type="line"/>
    </contour>
    <contour>
      <point x="305" y="215" type="line"/>
      <point x="445" y="215" type="line"/>
      <point x="445" y="813" type="line"/>
      <point x="305" y="813" type="line"/>
    </contour>
  </outline>
</glyph>
<glyph name="micro" format="2">
  <advance width="730"/>
  <unicode hex="00B5"/>
  <outline>
    <contour>
      <point x="66" y="-300" type="line"/>
      <point x="240" y="-300" type="line"/>
      <point x="240" y="75" type="line"/>
      <point x="216" y="50" type="line"/>
      <point x="251" y="4"/>
      <point x="300" y="-20"/>
      <point x="356" y="-20" type="curve" smooth="yes"/>
      <point x="431" y="-20"/>
      <point x="495" y="23"/>
      <point x="525" y="105" type="curve"/>
      <point x="493" y="100" type="line"/>
      <point x="524" y="28"/>
      <point x="593" y="-12"/>
      <point x="681" y="-12" type="curve"/>
      <point x="714" y="127" type="line"/>
      <point x="669" y="127"/>
      <point x="646" y="149"/>
      <point x="646" y="201" type="curve" smooth="yes"/>
      <point x="646" y="600" type="line"/>
      <point x="472" y="600" type="line"/>
      <point x="472" y="262" type="line" smooth="yes"/>
      <point x="472" y="180"/>
      <point x="416" y="136"/>
      <point x="356" y="136" type="curve" smooth="yes"/>
      <point x="282" y="136"/>
      <point x="240" y="197"/>
      <point x="240" y="264" type="curve" smooth="yes"/>
      <point x="240" y="600" type="line"/>
      <point x="66" y="600" type="line"/>
    </contour>
  </outline>
</glyph>
<glyph name="ae" format="2">
  <advance width="1090"/>
  <unicode hex="00E6"/>
  <anchor x="540" y="0" name="bottom"/>
  <anchor x="540" y="600" name="top"/>
  <outline>
    <contour>
      <point x="777" y="-20" type="curve" smooth="yes"/>
      <point x="858" y="-20"/>
      <point x="936" y="3"/>
      <point x="996" y="48" type="curve"/>
      <point x="958" y="204" type="line"/>
      <point x="919" y="159"/>
      <point x="857" y="124"/>
      <point x="781" y="124" type="curve" smooth="yes"/>
      <point x="666" y="124"/>
      <point x="596" y="198"/>
      <point x="596" y="300" type="curve"/>
      <point x="587" y="300" type="line"/>
      <point x="587" y="410"/>
      <point x="655" y="482"/>
      <point x="748" y="482" type="curve" smooth="yes"/>
      <point x="846" y="482"/>
      <point x="909" y="410"/>
      <point x="909" y="300" type="curve"/>
      <point x="938" y="356" type="line"/>
      <point x="896" y="369"/>
      <point x="853" y="375"/>
      <point x="800" y="375" type="curve" smooth="yes"/>
      <point x="693" y="375" type="line" smooth="yes"/>
      <point x="646" y="375"/>
      <point x="604" y="367"/>
      <point x="557" y="355" type="curve"/>
      <point x="557" y="269" type="line"/>
      <point x="604" y="257"/>
      <point x="646" y="249"/>
      <point x="693" y="249" type="curve" smooth="yes"/>
      <point x="1060" y="249" type="line"/>
      <point x="1060" y="310" type="line" smooth="yes"/>
      <point x="1060" y="487"/>
      <point x="927" y="620"/>
      <point x="750" y="620" type="curve" smooth="yes"/>
      <point x="671" y="620"/>
      <point x="600" y="593"/>
      <point x="545" y="547" type="curve"/>
      <point x="494" y="593"/>
      <point x="417" y="620"/>
      <point x="324" y="620" type="curve" smooth="yes"/>
      <point x="238" y="620"/>
      <point x="150" y="597"/>
      <point x="80" y="555" type="curve"/>
      <point x="115" y="413" type="line"/>
      <point x="164" y="453"/>
      <point x="230" y="482"/>
      <point x="304" y="482" type="curve" smooth="yes"/>
      <point x="404" y="482"/>
      <point x="466" y="429"/>
      <point x="468" y="364" type="curve"/>
      <point x="466" y="352" type="line"/>
      <point x="412" y="374"/>
      <point x="359" y="384"/>
      <point x="301" y="384" type="curve" smooth="yes"/>
      <point x="142" y="384"/>
      <point x="36" y="304"/>
      <point x="36" y="184" type="curve" smooth="yes"/>
      <point x="36" y="63"/>
      <point x="129" y="-14"/>
      <point x="282" y="-14" type="curve" smooth="yes"/>
      <point x="378" y="-14"/>
      <point x="460" y="24"/>
      <point x="518" y="85" type="curve"/>
      <point x="578" y="20"/>
      <point x="668" y="-20"/>
    </contour>
    <contour>
      <point x="296" y="118" type="curve" smooth="yes"/>
      <point x="236" y="118"/>
      <point x="198" y="145"/>
      <point x="198" y="187" type="curve" smooth="yes"/>
      <point x="198" y="232"/>
      <point x="243" y="258"/>
      <point x="320" y="258" type="curve" smooth="yes"/>
      <point x="369" y="258"/>
      <point x="425" y="248"/>
      <point x="466" y="231" type="curve"/>
      <point x="467" y="223" type="line"/>
      <point x="452" y="166"/>
      <point x="377" y="118"/>
    </contour>
  </outline>
</glyph>
<glyph name="OE" format="2">
  <advance width="1320"/>
  <unicode hex="0152"/>
  <anchor x="530" y="0" name="bottom"/>
  <anchor x="530" y="450" name="center"/>
  <anchor x="530" y="0" name="ogonek"/>
  <anchor x="530" y="900" name="top"/>
  <anchor x="530" y="480" name="top-vertical"/>
  <anchor x="60" y="900" name="topleft"/>
  <anchor x="1000" y="900" name="topright"/>
  <outline>
    <contour>
      <point x="512" y="-18" type="curve" smooth="yes"/>
      <point x="639" y="-18"/>
      <point x="745" y="24"/>
      <point x="806" y="99" type="curve"/>
      <point x="786" y="128" type="line"/>
      <point x="786" y="0" type="line"/>
      <point x="1266" y="0" type="line"/>
      <point x="1266" y="162" type="line"/>
      <point x="960" y="162" type="line"/>
      <point x="960" y="456" type="line"/>
      <point x="1196" y="456" type="line"/>
      <point x="1196" y="606" type="line"/>
      <point x="960" y="606" type="line"/>
      <point x="960" y="744" type="line"/>
      <point x="1266" y="744" type="line"/>
      <point x="1266" y="900" type="line"/>
      <point x="786" y="900" type="line"/>
      <point x="786" y="772" type="line"/>
      <point x="805" y="802" type="line"/>
      <point x="747" y="872"/>
      <point x="646" y="918"/>
      <point x="512" y="918" type="curve" smooth="yes"/>
      <point x="259" y="918"/>
      <point x="54" y="709"/>
      <point x="54" y="450" type="curve" smooth="yes"/>
      <point x="54" y="191"/>
      <point x="259" y="-18"/>
    </contour>
    <contour>
      <point x="530" y="156" type="curve" smooth="yes"/>
      <point x="368" y="156"/>
      <point x="242" y="287"/>
      <point x="242" y="450" type="curve" smooth="yes"/>
      <point x="242" y="613"/>
      <point x="368" y="744"/>
      <point x="530" y="744" type="curve" smooth="yes"/>
      <point x="692" y="744"/>
      <point x="818" y="613"/>
      <point x="818" y="450" type="curve" smooth="yes"/>
      <point x="818" y="287"/>
      <point x="692" y="156"/>
    </contour>
  </outline>
</glyph>
<glyph name="commaaccentcomb" format="2">
  <unicode hex="0326"/>
  <anchor x="360" y="0" name="_bottom"/>
  <anchor x="280" y="-330" name="bottom"/>
  <outline>
    <contour>
      <point x="192" y="-330" type="curve"/>
      <point x="368" y="-330" type="line"/>
      <point x="410" y="-264"/>
      <point x="435" y="-190"/>
      <point x="441" y="-108" type="curve"/>
      <point x="279" y="-108" type="line"/>
      <point x="272" y="-198"/>
      <point x="240" y="-271"/>
    </contour>
  </outline>
</glyph>
<glyph name="slashlongcomb" format="2">
  <unicode hex="0338"/>
  <anchor x="278" y="300" name="_center"/>
  <outline>
    <contour>
      <point x="69" y="-25" type="line"/>
      <point x="558" y="557" type="line"/>
      <point x="481" y="624" type="line"/>
      <point x="-8" y="42" type="line"/>
    </contour>
  </outline>
</glyph>
<glyph name="Germandbls" format="2">
  <advance width="990"/>
  <unicode hex="1E9E"/>
  <outline>
    <contour>
      <point x="626" y="-20" type="curve" smooth="yes"/>
      <point x="806" y="-20"/>
      <point x="960" y="118"/>
      <point x="960" y="299" type="curve" smooth="yes"/>
      <point x="960" y="433"/>
      <point x="875" y="543"/>
      <point x="762" y="586" type="curve"/>
      <point x="930" y="900" type="line"/>
      <point x="96" y="900" type="line"/>
      <point x="96" y="0" type="line"/>
      <point x="281" y="0" type="line"/>
      <point x="281" y="738" type="line"/>
      <point x="670" y="738" type="line"/>
      <point x="512" y="428" type="line"/>
      <point x="549" y="448"/>
      <point x="584" y="458"/>
      <point x="624" y="458" type="curve" smooth="yes"/>
      <point x="724" y="458"/>
      <point x="790" y="388"/>
      <point x="790" y="301" type="curve" smooth="yes"/>
      <point x="790" y="211"/>
      <point x="719" y="142"/>
      <point x="628" y="142" type="curve" smooth="yes"/>
      <point x="533" y="142"/>
      <point x="460" y="217"/>
      <point x="442" y="306" type="curve"/>
      <point x="350" y="123" type="line"/>
      <point x="406" y="38"/>
      <point x="509" y="-20"/>
    </contour>
  </outline>
</glyph>
<glyph name="el" format="2">
  <advance width="750"/>
  <unicode hex="218B"/>
  <outline>
    <contour>
      <point x="114" y="0" type="line"/>
      <point x="676" y="0" type="line"/>
      <point x="676" y="156" type="line"/>
      <point x="314" y="156" type="line"/>
      <point x="347" y="110" type="line"/>
      <point x="539" y="483" type="line"/>
      <point x="504" y="466"/>
      <point x="473" y="459"/>
      <point x="435" y="459" type="curve" smooth="yes"/>
      <point x="346" y="459"/>
      <point x="284" y="526"/>
      <point x="284" y="609" type="curve" smooth="yes"/>
      <point x="284" y="694"/>
      <point x="351" y="760"/>
      <point x="437" y="760" type="curve" smooth="yes"/>
      <point x="523" y="760"/>
      <point x="586" y="694"/>
      <point x="606" y="614" type="curve"/>
      <point x="696" y="791" type="line"/>
      <point x="641" y="868"/>
      <point x="546" y="920"/>
      <point x="437" y="920" type="curve" smooth="yes"/>
      <point x="263" y="920"/>
      <point x="114" y="782"/>
      <point x="114" y="609" type="curve" smooth="yes"/>
      <point x="114" y="466"/>
      <point x="213" y="354"/>
      <point x="340" y="323" type="curve"/>
      <point x="324" y="392" type="line"/>
    </contour>
  </outline>
</glyph>
<glyph name="bulletoperator" format="2">
  <advance width="480"/>
  <unicode hex="2219"/>
  <outline>
    <contour>
      <point x="240" y="294" type="curve" smooth="yes"/>
      <point x="330" y="294"/>
      <point x="396" y="362"/>
      <point x="396" y="450" type="curve" smooth="yes"/>
      <point x="396" y="538"/>
      <point x="330" y="606"/>
      <point x="240" y="606" type="curve" smooth="yes"/>
      <point x="152" y="606"/>
      <point x="84" y="538"/>
      <point x="84" y="450" type="curve" smooth="yes"/>
      <point x="84" y="362"/>
      <point x="152" y="294"/>
    </contour>
  </outline>
</glyph>
<glyph name="a.ss02" format="2">
  <advance width="670"/>
  <anchor x="323" y="0" name="bottom"/>
  <anchor x="546" y="0" name="ogonek"/>
  <anchor x="332" y="600" name="top"/>
  <outline>
    <contour>
      <point x="262" y="-14" type="curve" smooth="yes"/>
      <point x="344" y="-14"/>
      <point x="416" y="16"/>
      <point x="466" y="70" type="curve"/>
      <point x="466" y="0" type="line"/>
      <point x="616" y="0" type="line"/>
      <point x="616" y="380" type="line" smooth="yes"/>
      <point x="616" y="524"/>
      <point x="499" y="620"/>
      <point x="324" y="620" type="curve" smooth="yes"/>
      <point x="238" y="620"/>
      <point x="150" y="597"/>
      <point x="80" y="555" type="curve"/>
      <point x="115" y="407" type="line"/>
      <point x="164" y="453"/>
      <point x="237" y="482"/>
      <point x="307" y="482" type="curve" smooth="yes"/>
      <point x="401" y="482"/>
      <point x="466" y="429"/>
      <point x="466" y="360" type="curve" smooth="yes"/>
      <point x="466" y="351" type="line"/>
      <point x="412" y="373"/>
      <point x="359" y="384"/>
      <point x="301" y="384" type="curve" smooth="yes"/>
      <point x="142" y="384"/>
      <point x="36" y="303"/>
      <point x="36" y="181" type="curve" smooth="yes"/>
      <point x="36" y="66"/>
      <point x="129" y="-14"/>
    </contour>
    <contour>
      <point x="296" y="118" type="curve" smooth="yes"/>
      <point x="236" y="118"/>
      <point x="198" y="145"/>
      <point x="198" y="187" type="curve" smooth="yes"/>
      <point x="198" y="232"/>
      <point x="243" y="258"/>
      <point x="320" y="258" type="curve" smooth="yes"/>
      <point x="369" y="258"/>
      <point x="425" y="248"/>
      <point x="466" y="231" type="curve"/>
      <point x="459" y="170"/>
      <point x="380" y="118"/>
    </contour>
  </outline>
</glyph>
<glyph name="acutecomb.small" format="2">
  <anchor x="314" y="600" name="_top"/>
  <outline>
    <contour>
      <point x="266" y="630" type="line"/>
      <point x="350" y="630" type="line"/>
      <point x="454" y="780" type="line"/>
      <point x="342" y="780" type="line"/>
    </contour>
  </outline>
</glyph>
<glyph name="braceleft.titl" format="2">
  <advance width="480"/>
  <outline>
    <contour>
      <point x="405" y="-186" type="curve"/>
      <point x="420" y="-121" type="line"/>
      <point x="300" y="-121"/>
      <point x="229" y="-73"/>
      <point x="229" y="71" type="curve" smooth="yes"/>
      <point x="229" y="131"/>
      <point x="243" y="200"/>
      <point x="243" y="245" type="curve" smooth="yes"/>
      <point x="243" y="340"/>
      <point x="182" y="400"/>
      <point x="83" y="400" type="curve"/>
      <point x="83" y="380" type="line"/>
      <point x="182" y="380"/>
      <point x="243" y="440"/>
      <point x="243" y="535" type="curve" smooth="yes"/>
      <point x="243" y="580"/>
      <point x="229" y="649"/>
      <point x="229" y="709" type="curve" smooth="yes"/>
      <point x="229" y="853"/>
      <point x="301" y="901"/>
      <point x="420" y="901" type="curve"/>
      <point x="405" y="966" type="line"/>
      <point x="258" y="966"/>
      <point x="153" y="888"/>
      <point x="153" y="719" type="curve" smooth="yes"/>
      <point x="153" y="660"/>
      <point x="166" y="586"/>
      <point x="166" y="541" type="curve" smooth="yes"/>
      <point x="166" y="458"/>
      <point x="123" y="426"/>
      <point x="36" y="390" type="curve"/>
      <point x="123" y="354"/>
      <point x="166" y="322"/>
      <point x="166" y="239" type="curve" smooth="yes"/>
      <point x="166" y="194"/>
      <point x="153" y="120"/>
      <point x="153" y="61" type="curve" smooth="yes"/>
      <point x="153" y="-108"/>
      <point x="258" y="-186"/>
    </contour>
  </outline>
</glyph>
<glyph name="c.001" format="2">
  <advance width="600"/>
  <anchor x="365" y="0" name="bottom"/>
  <anchor x="365" y="540" name="top"/>
  <outline>
    <contour>
      <point x="355" y="-19" type="curve" smooth="yes"/>
      <point x="430" y="-19"/>
      <point x="498" y="6"/>
      <point x="551" y="54" type="curve"/>
      <point x="509" y="217" type="line"/>
      <point x="479" y="169"/>
      <point x="428" y="127"/>
      <point x="362" y="127" type="curve" smooth="yes"/>
      <point x="277" y="127"/>
      <point x="216" y="191"/>
      <point x="216" y="270" type="curve" smooth="yes"/>
      <point x="216" y="349"/>
      <point x="278" y="413"/>
      <point x="362" y="413" type="curve" smooth="yes"/>
      <point x="428" y="413"/>
      <point x="479" y="370"/>
      <point x="509" y="322" type="curve"/>
      <point x="551" y="486" type="line"/>
      <point x="498" y="534"/>
      <point x="430" y="558"/>
      <point x="355" y="558" type="curve" smooth="yes"/>
      <point x="191" y="558"/>
      <point x="59" y="429"/>
      <point x="59" y="270" type="curve" smooth="yes"/>
      <point x="59" y="110"/>
      <point x="192" y="-19"/>
    </contour>
  </outline>
</glyph>
<glyph name="circumflexcomb_tildecomb" format="2">
  <anchor x="360" y="600" name="_top"/>
  <outline>
    <contour>
      <point x="141" y="678" type="line"/>
      <point x="299" y="678" type="line"/>
      <point x="321" y="698"/>
      <point x="338" y="718"/>
      <point x="358" y="742" type="curve"/>
      <point x="378" y="718"/>
      <point x="395" y="698"/>
      <point x="417" y="678" type="curve"/>
      <point x="579" y="678" type="line"/>
      <point x="360" y="903" type="line"/>
    </contour>
    <contour>
      <point x="197" y="896" type="line"/>
      <point x="213" y="936"/>
      <point x="240" y="960"/>
      <point x="278" y="960" type="curve" smooth="yes"/>
      <point x="331" y="960"/>
      <point x="378" y="914"/>
      <point x="442" y="914" type="curve" smooth="yes"/>
      <point x="492" y="914"/>
      <point x="537" y="942"/>
      <point x="561" y="990" type="curve"/>
      <point x="523" y="1100" type="line"/>
      <point x="507" y="1060"/>
      <point x="480" y="1036"/>
      <point x="442" y="1036" type="curve" smooth="yes"/>
      <point x="389" y="1036"/>
      <point x="342" y="1082"/>
      <point x="278" y="1082" type="curve" smooth="yes"/>
      <point x="228" y="1082"/>
      <point x="183" y="1054"/>
      <point x="159" y="1006" type="curve"/>
    </contour>
  </outline>
</glyph>
<glyph name="dek.numr" format="2">
  <advance width="480"/>
  <outline>
    <contour>
      <point x="251" y="402" type="curve" smooth="yes"/>
      <point x="356" y="402"/>
      <point x="435" y="476"/>
      <point x="435" y="573" type="curve" smooth="yes"/>
      <point x="435" y="598"/>
      <point x="431" y="611"/>
      <point x="425" y="630" type="curve"/>
      <point x="287" y="630" type="line"/>
      <point x="300" y="613"/>
      <point x="307" y="598"/>
      <point x="307" y="579" type="curve" smooth="yes"/>
      <point x="307" y="547"/>
      <point x="287" y="522"/>
      <point x="252" y="522" type="curve" smooth="yes"/>
      <point x="221" y="522"/>
      <point x="198" y="543"/>
      <point x="198" y="578" type="curve" smooth="yes"/>
      <point x="198" y="599"/>
      <point x="207" y="617"/>
      <point x="234" y="651" type="curve" smooth="yes"/>
      <point x="435" y="900" type="line"/>
      <point x="45" y="900" type="line"/>
      <point x="45" y="786" type="line"/>
      <point x="147" y="786" type="line" smooth="yes"/>
      <point x="191" y="786"/>
      <point x="231" y="788"/>
      <point x="263" y="792" type="curve"/>
      <point x="248" y="815" type="line"/>
      <point x="196" y="779"/>
      <point x="159" y="744"/>
      <point x="129" y="708" type="curve" smooth="yes"/>
      <point x="85" y="656"/>
      <point x="66" y="617"/>
      <point x="66" y="573" type="curve" smooth="yes"/>
      <point x="66" y="479"/>
      <point x="145" y="402"/>
    </contour>
  </outline>
</glyph>
<glyph name="dieresiscomb.vertical.A" format="2">
  <anchor x="360" y="540" name="_top-vertical"/>
  <outline>
    <contour>
      <point x="311" y="336" type="curve" smooth="yes"/>
      <point x="358" y="336"/>
      <point x="395" y="373"/>
      <point x="395" y="420" type="curve" smooth="yes"/>
      <point x="395" y="466"/>
      <point x="358" y="504"/>
      <point x="311" y="504" type="curve" smooth="yes"/>
      <point x="265" y="504"/>
      <point x="227" y="466"/>
      <point x="227" y="420" type="curve" smooth="yes"/>
      <point x="227" y="373"/>
      <point x="265" y="336"/>
    </contour>
    <contour>
      <point x="409" y="576" type="curve" smooth="yes"/>
      <point x="456" y="576"/>
      <point x="493" y="613"/>
      <point x="493" y="660" type="curve" smooth="yes"/>
      <point x="493" y="706"/>
      <point x="456" y="744"/>
      <point x="409" y="744" type="curve" smooth="yes"/>
      <point x="363" y="744"/>
      <point x="325" y="706"/>
      <point x="325" y="660" type="curve" smooth="yes"/>
      <point x="325" y="613"/>
      <point x="363" y="576"/>
    </contour>
  </outline>
</glyph>
<glyph name="hyphen.case" format="2">
  <advance width="380"/>
  <outline>
    <contour>
      <point x="30" y="378" type="line"/>
      <point x="350" y="378" type="line"/>
      <point x="350" y="522" type="line"/>
      <point x="30" y="522" type="line"/>
    </contour>
  </outline>
</glyph>
<glyph name="nine.numr" format="2">
  <advance width="480"/>
  <outline>
    <contour>
      <point x="163" y="420" type="line"/>
      <point x="298" y="420" type="line"/>
      <point x="418" y="642" type="line" smooth="yes"/>
      <point x="432" y="669"/>
      <point x="441" y="701"/>
      <point x="441" y="732" type="curve" smooth="yes"/>
      <point x="441" y="837"/>
      <point x="350" y="918"/>
      <point x="240" y="918" type="curve" smooth="yes"/>
      <point x="130" y="918"/>
      <point x="39" y="838"/>
      <point x="39" y="734" type="curve" smooth="yes"/>
      <point x="39" y="632"/>
      <point x="124" y="557"/>
      <point x="226" y="557" type="curve" smooth="yes"/>
      <point x="252" y="557"/>
      <point x="282" y="563"/>
      <point x="306" y="586" type="curve"/>
      <point x="266" y="600" type="line"/>
    </contour>
    <contour>
      <point x="240" y="658" type="curve" smooth="yes"/>
      <point x="198" y="658"/>
      <point x="165" y="692"/>
      <point x="165" y="734" type="curve" smooth="yes"/>
      <point x="165" y="775"/>
      <point x="198" y="808"/>
      <point x="240" y="808" type="curve" smooth="yes"/>
      <point x="282" y="808"/>
      <point x="315" y="775"/>
      <point x="315" y="734" type="curve" smooth="yes"/>
      <point x="315" y="692"/>
      <point x="282" y="658"/>
    </contour>
  </outline>
</glyph>
<glyph name="slashlongcomb.case" format="2">
  <anchor x="400" y="457" name="_center"/>
  <outline>
    <contour>
      <point x="80" y="-25" type="line"/>
      <point x="809" y="852" type="line"/>
      <point x="720" y="925" type="line"/>
      <point x="-9" y="48" type="line"/>
    </contour>
  </outline>
</glyph>
<glyph name="tildecomb.case" format="2">
  <anchor x="360" y="900" name="_top"/>
  <outline>
    <contour>
      <point x="160" y="991" type="line"/>
      <point x="180" y="1035"/>
      <point x="213" y="1061"/>
      <point x="254" y="1061" type="curve" smooth="yes"/>
      <point x="320" y="1061"/>
      <point x="387" y="995"/>
      <point x="464" y="995" type="curve" smooth="yes"/>
      <point x="516" y="995"/>
      <point x="566" y="1025"/>
      <point x="593" y="1078" type="curve"/>
      <point x="559" y="1199" type="line"/>
      <point x="539" y="1155"/>
      <point x="507" y="1129"/>
      <point x="466" y="1129" type="curve" smooth="yes"/>
      <point x="400" y="1129"/>
      <point x="333" y="1195"/>
      <point x="256" y="1195" type="curve" smooth="yes"/>
      <point x="204" y="1195"/>
      <point x="154" y="1165"/>
      <point x="127" y="1112" type="curve"/>
    </contour>
  </outline>
</glyph>
<glyph name="two.numr" format="2">
  <advance width="480"/>
  <outline>
    <contour>
      <point x="45" y="420" type="line"/>
      <point x="435" y="420" type="line"/>
      <point x="435" y="534" type="line"/>
      <point x="333" y="534" type="line" smooth="yes"/>
      <point x="289" y="534"/>
      <point x="249" y="532"/>
      <point x="217" y="528" type="curve"/>
      <point x="232" y="505" type="line"/>
      <point x="284" y="541"/>
      <point x="321" y="576"/>
      <point x="351" y="612" type="curve" smooth="yes"/>
      <point x="395" y="664"/>
      <point x="414" y="703"/>
      <point x="414" y="747" type="curve" smooth="yes"/>
      <point x="414" y="841"/>
      <point x="335" y="918"/>
      <point x="229" y="918" type="curve" smooth="yes"/>
      <point x="124" y="918"/>
      <point x="45" y="844"/>
      <point x="45" y="747" type="curve" smooth="yes"/>
      <point x="45" y="722"/>
      <point x="49" y="709"/>
      <point x="55" y="690" type="curve"/>
      <point x="193" y="690" type="line"/>
      <point x="180" y="707"/>
      <point x="173" y="722"/>
      <point x="173" y="741" type="curve" smooth="yes"/>
      <point x="173" y="773"/>
      <point x="193" y="798"/>
      <point x="228" y="798" type="curve" smooth="yes"/>
      <point x="259" y="798"/>
      <point x="282" y="777"/>
      <point x="282" y="742" type="curve" smooth="yes"/>
      <point x="282" y="721"/>
      <point x="273" y="703"/>
      <point x="246" y="669" type="curve" smooth="yes"/>
    </contour>
  </outline>
</glyph>
<glyph name="zero.lf" format="2">
  <advance width="750"/>
  <outline>
    <contour>
      <point x="375" y="-20" type="curve" smooth="yes"/>
      <point x="606" y="-20"/>
      <point x="708" y="223"/>
      <point x="708" y="450" type="curve" smooth="yes"/>
      <point x="708" y="677"/>
      <point x="606" y="920"/>
      <point x="375" y="920" type="curve" smooth="yes"/>
      <point x="144" y="920"/>
      <point x="42" y="677"/>
      <point x="42" y="450" type="curve" smooth="yes"/>
      <point x="42" y="223"/>
      <point x="144" y="-20"/>
    </contour>
    <contour>
      <point x="375" y="142" type="curve" smooth="yes"/>
      <point x="262" y="142"/>
      <point x="222" y="310"/>
      <point x="222" y="450" type="curve" smooth="yes"/>
      <point x="222" y="590"/>
      <point x="262" y="758"/>
      <point x="375" y="758" type="curve" smooth="yes"/>
      <point x="488" y="758"/>
      <point x="528" y="590"/>
      <point x="528" y="450" type="curve" smooth="yes"/>
      <point x="528" y="310"/>
      <point x="488" y="142"/>
    </contour>
  </outline>
</glyph>
